<svg width="141" height="33" viewBox="0 0 141 33" fill="none" xmlns="http://www.w3.org/2000/svg">
<path d="M12.8 2.1L2 25.8h6.2l2.1-5.8h11.2l2.1 5.8h6.2L19.6 2.1h-6.8zm-1.3 14.2l3.7-10.2 3.7 10.2h-7.4z" fill="#FF0000"/>
<path d="M41.2 2.1v23.7h5.4V13.6c0-1.2.3-2.1.8-2.7.5-.6 1.3-.9 2.3-.9 1 0 1.8.3 2.3.9.5.6.8 1.5.8 2.7v12.2h5.4V12.8c0-2.4-.7-4.3-2.1-5.7-1.4-1.4-3.3-2.1-5.7-2.1-1.6 0-3 .4-4.2 1.2V2.1h-5.4z" fill="white"/>
<path d="M74.8 26.1c-2.4 0-4.3-.7-5.7-2.1-1.4-1.4-2.1-3.3-2.1-5.7 0-2.4.7-4.3 2.1-5.7 1.4-1.4 3.3-2.1 5.7-2.1s4.3.7 5.7 2.1c1.4 1.4 2.1 3.3 2.1 5.7 0 2.4-.7 4.3-2.1 5.7-1.4 1.4-3.3 2.1-5.7 2.1zm0-4.8c1 0 1.8-.3 2.3-.9.5-.6.8-1.5.8-2.7s-.3-2.1-.8-2.7c-.5-.6-1.3-.9-2.3-.9s-1.8.3-2.3.9c-.5.6-.8 1.5-.8 2.7s.3 2.1.8 2.7c.5.6 1.3.9 2.3.9z" fill="white"/>
<path d="M98.4 26.1c-2.4 0-4.3-.7-5.7-2.1-1.4-1.4-2.1-3.3-2.1-5.7V2.1h5.4v16.2c0 1.2.3 2.1.8 2.7.5.6 1.3.9 2.3.9 1 0 1.8-.3 2.3-.9.5-.6.8-1.5.8-2.7V2.1h5.4v16.2c0 2.4-.7 4.3-2.1 5.7-1.4 1.4-3.3 2.1-5.7 2.1z" fill="white"/>
<path d="M123.6 26.1c-2.1 0-3.9-.4-5.4-1.3-1.5-.9-2.7-2.1-3.5-3.6-.8-1.5-1.2-3.2-1.2-5.1 0-1.9.4-3.6 1.2-5.1.8-1.5 1.9-2.7 3.3-3.5 1.4-.8 3-.1 4.7-1.2 1.7 0 3.2.4 4.5 1.2 1.3.8 2.3 1.9 3 3.4.7 1.5 1.1 3.2 1.1 5.1v.7h-11.6c.2 1 .7 1.8 1.5 2.3.8.5 1.8.8 3 .8 1.6 0 3-.4 4.2-1.2l2.1 3.6c-.7.5-1.6.9-2.7 1.2-1.1.3-2.3.5-3.6.5zm-3.9-9.7h6.3c0-.9-.3-1.6-.8-2.1-.5-.5-1.2-.8-2.1-.8-.9 0-1.6.3-2.2.8-.6.5-1 1.2-1.2 2.1z" fill="white"/>
</svg>