<svg width="141" height="33" viewBox="0 0 141 33" fill="none" xmlns="http://www.w3.org/2000/svg">
<path d="M8.2 2.1L2 25.8h4.8l1.2-4.5h6.8l1.2 4.5h4.8L14.6 2.1H8.2zm-.8 15.2l2.2-8.1 2.2 8.1H7.4z" fill="#0696D7"/>
<path d="M28.4 15.6v10.2h-4.2V11.4h4.2v1.8c.8-1.4 2.2-2.1 4.2-2.1v4.2h-1.1c-1.8 0-3.1.9-3.1 3.3z" fill="white"/>
<path d="M42.8 11.1c1.8 0 3.2.5 4.2 1.5 1 1 1.5 2.4 1.5 4.2v9h-4.2v-8.4c0-1.8-.8-2.7-2.4-2.7-1.6 0-2.4.9-2.4 2.7v8.4h-4.2v-14.4h4.2v1.5c.8-1.2 2.1-1.8 3.3-1.8z" fill="white"/>
<path d="M58.2 11.1c1.8 0 3.2.5 4.2 1.5 1 1 1.5 2.4 1.5 4.2v9h-4.2v-8.4c0-1.8-.8-2.7-2.4-2.7-1.6 0-2.4.9-2.4 2.7v8.4h-4.2V7.2h4.2v6.4c.8-1.2 2.1-1.8 3.3-1.8z" fill="white"/>
<path d="M74.4 25.8c-2.1 0-3.8-.7-5.1-2.1-1.3-1.4-2-3.2-2-5.4s.7-4 2-5.4c1.3-1.4 3-2.1 5.1-2.1s3.8.7 5.1 2.1c1.3 1.4 2 3.2 2 5.4s-.7 4-2 5.4c-1.3 1.4-3 2.1-5.1 2.1zm0-3.6c.9 0 1.6-.3 2.1-.9.5-.6.8-1.4.8-2.4s-.3-1.8-.8-2.4c-.5-.6-1.2-.9-2.1-.9s-1.6.3-2.1.9c-.5.6-.8 1.4-.8 2.4s.3 1.8.8 2.4c.5.6 1.2.9 2.1.9z" fill="white"/>
<path d="M91.8 11.1c2.1 0 3.8.7 5.1 2.1 1.3 1.4 2 3.2 2 5.4s-.7 4-2 5.4c-1.3 1.4-3 2.1-5.1 2.1-1.2 0-2.3-.3-3.3-.9-.9-.6-1.6-1.4-2.1-2.4v2.7h-4.2V7.2h4.2v6.3c.5-1 1.2-1.8 2.1-2.4 1-.6 2.1-.9 3.3-.9zm-1.2 11.1c.9 0 1.6-.3 2.1-.9.5-.6.8-1.4.8-2.4s-.3-1.8-.8-2.4c-.5-.6-1.2-.9-2.1-.9s-1.6.3-2.1.9c-.5.6-.8 1.4-.8 2.4s.3 1.8.8 2.4c.5.6 1.2.9 2.1.9z" fill="white"/>
<path d="M109.8 21.6h-8.4c.2 1.2 1.2 1.8 3 1.8 1.2 0 2.1-.3 2.7-.9l2.4 2.4c-1.2 1.2-3 1.8-5.4 1.8-2.1 0-3.8-.7-5.1-2.1-1.3-1.4-2-3.2-2-5.4s.7-4 2-5.4c1.3-1.4 3-2.1 5.1-2.1s3.8.7 5.1 2.1c1.3 1.4 2 3.2 2 5.4v.4zm-8.4-2.4h4.8c-.2-1.2-1.2-1.8-2.4-1.8s-2.2.6-2.4 1.8z" fill="white"/>
<path d="M120.6 11.1c.9 0 1.8.2 2.7.6l-1.2 3.6c-.6-.3-1.2-.4-1.8-.4-.9 0-1.5.3-1.8.9-.3.6-.4 1.5-.4 2.7v7.3h-4.2V11.4h4.2v2.1c.6-1.5 1.8-2.4 2.5-2.4z" fill="white"/>
<path d="M133.8 11.1c.9 0 1.8.2 2.7.6l-1.2 3.6c-.6-.3-1.2-.4-1.8-.4-.9 0-1.5.3-1.8.9-.3.6-.4 1.5-.4 2.7v7.3h-4.2V11.4h4.2v2.1c.6-1.5 1.8-2.4 2.5-2.4z" fill="white"/>
</svg>