<svg width="141" height="33" viewBox="0 0 141 33" fill="none" xmlns="http://www.w3.org/2000/svg">
<path d="M20.3 18.8c-3.7 2.7-9.1 4.1-13.7 4.1-6.5 0-12.3-2.4-16.7-6.4-.3-.3-.1-.8.4-.5 4.8 2.8 10.7 4.5 16.8 4.5 4.1 0 8.6-.9 12.7-2.7.6-.3 1.1.4.5.9z" fill="#FF9900"/>
<path d="M21.8 17.1c-.5-.6-3.1-.3-4.3-.1-.4 0-.4-.3-.1-.5 2.1-1.5 5.5-1.1 5.9-.6.4.6-.1 4.4-2.3 6.2-.3.3-.6.1-.5-.2.4-1.1 1.4-3.6.9-4.2z" fill="#FF9900"/>
<path d="M19.4 3.7V2.4c0-.2.2-.4.4-.4h7.2c.2 0 .4.2.4.4v1.1c0 .2-.2.5-.4.7l-3.7 5.3c1.4-.1 2.8.2 4.1.8.3.1.4.4.4.7v1.4c0 .2-.2.5-.5.4-1.9-1-4.4-1.1-6.5.1-.2.1-.5-.1-.5-.4V10.6c0-.2 0-.6.2-.9l4.3-6.1h-3.8c-.2 0-.4-.2-.4-.4zm-9.1 8.5h-1.8c-.2 0-.3-.1-.4-.3V.9c0-.2.2-.4.4-.4h1.7c.2 0 .3.1.4.3v1.5h.1c.4-.7 1.1-2.1 2.8-2.1 1.3 0 2.1.5 2.7 2.1.4-.7 1.2-2.1 2.9-2.1 1.8 0 3 1.2 3 3.8v7.7c0 .2-.2.4-.4.4h-1.8c-.2 0-.4-.2-.4-.4V6.1c0-.8-.1-2.7-1.2-2.7s-1.4 1.1-1.4 2.7v5.6c0 .2-.2.4-.4.4h-1.8c-.2 0-.4-.2-.4-.4V6.1c0-.8-.1-2.7-1.2-2.7s-1.4 1.1-1.4 2.7v5.6c0 .2-.2.4-.4.4zm29.8.1c-2.4 0-4-2.1-4-4.8 0-2.6 1.7-4.9 4.1-4.9 2.3 0 4 2.1 4 4.8 0 2.7-1.7 4.9-4.1 4.9zm0-7.5c-1.2 0-1.3 1.6-1.3 2.6 0 1 0 3.1 1.2 3.1 1.2 0 1.3-1.7 1.3-2.7 0-1.1-.1-2.6-1.2-2.6v-.4zm8.4 7.4h-1.8c-.2 0-.4-.2-.4-.4V3.1c0-.2.2-.4.4-.4h1.7c.2 0 .3.1.4.3v1.7h.1c.6-1.5 1.4-2.3 2.8-2.3.9 0 1.8.3 2.4 1.3.5 1 .5 2.6.5 3.8v5.2c0 .2-.2.4-.4.4h-1.8c-.2 0-.4-.2-.4-.4V7.4c0-1.5.2-3.7-1.7-3.7-.7 0-1.3.4-1.6 1.1-.4.9-.4 1.7-.4 2.6v4.3c0 .2-.2.4-.4.4z" fill="white"/>
<path d="M67.1 16.4c0 1.8.1 3.3.7 4.9.5 1.4 1.3 2.3 2.3 3.1 1 .8 2.2 1.3 3.5 1.3 1.9 0 3.6-.7 4.8-2.5l.1-.1 1.4 1.6-.1.1c-.7.9-1.6 1.6-2.6 2.1-1.1.5-2.3.8-3.6.8-1.8 0-3.4-.4-4.8-1.3-1.4-.9-2.5-2.1-3.2-3.6-.7-1.5-1.1-3.2-1.1-5.1 0-1.8.3-3.5 1-5s1.7-2.7 3-3.6c1.3-.9 2.8-1.4 4.5-1.4 1.6 0 3 .4 4.2 1.3 1.2.9 2.1 2.1 2.7 3.6.6 1.5.9 3.2.9 5.1v.7H67.1zm9.7-2.4c-.1-1.2-.4-2.2-.9-3-.5-.8-1.2-1.4-2-1.8-.8-.4-1.7-.6-2.6-.6-.9 0-1.8.2-2.6.6-.8.4-1.5 1-2 1.8-.5.8-.8 1.8-.9 3h10.9z" fill="white"/>
<path d="M85.7 27.3c-1.4 0-2.7-.2-3.9-.7-1.2-.5-2.2-1.2-3-2.1l1.5-1.5c.7.7 1.5 1.3 2.4 1.6.9.4 1.8.5 2.8.5 1.2 0 2.2-.3 3-.8.8-.5 1.2-1.3 1.2-2.3 0-.6-.2-1.1-.5-1.5-.3-.4-.8-.7-1.4-.9-.6-.2-1.4-.4-2.4-.6-1.2-.2-2.2-.5-3-.8-.8-.3-1.4-.8-1.9-1.4-.5-.6-.7-1.4-.7-2.4 0-1 .3-1.9.8-2.6.5-.7 1.3-1.3 2.2-1.7.9-.4 2-.6 3.2-.6 1.2 0 2.3.2 3.3.6 1 .4 1.8 1 2.5 1.7l-1.4 1.5c-.6-.6-1.2-1-2-1.3-.8-.3-1.6-.4-2.4-.4-1.1 0-2 .2-2.7.7-.7.5-1 1.1-1 1.9 0 .5.1.9.4 1.2.3.3.7.6 1.3.8.6.2 1.3.4 2.2.5 1.3.2 2.4.5 3.2.8.8.3 1.5.8 1.9 1.4.5.6.7 1.4.7 2.4 0 1-.3 1.9-.9 2.7-.6.8-1.4 1.4-2.4 1.8-1 .4-2.2.6-3.5.6z" fill="white"/>
<path d="M103.8 27.3c-1.8 0-3.4-.4-4.8-1.3-1.4-.9-2.5-2.1-3.2-3.6-.7-1.5-1.1-3.2-1.1-5.1 0-1.8.4-3.5 1.1-5 .7-1.5 1.8-2.7 3.2-3.6 1.4-.9 3-1.4 4.8-1.4s3.4.5 4.8 1.4c1.4.9 2.5 2.1 3.2 3.6.7 1.5 1.1 3.2 1.1 5 0 1.9-.4 3.6-1.1 5.1-.7 1.5-1.8 2.7-3.2 3.6-1.4.9-3 1.3-4.8 1.3zm0-2.2c1.2 0 2.3-.3 3.2-.9.9-.6 1.6-1.4 2.1-2.5.5-1.1.7-2.3.7-3.6 0-1.3-.2-2.5-.7-3.6-.5-1.1-1.2-1.9-2.1-2.5-.9-.6-2-.9-3.2-.9s-2.3.3-3.2.9c-.9.6-1.6 1.4-2.1 2.5-.5 1.1-.7 2.3-.7 3.6 0 1.3.2 2.5.7 3.6.5 1.1 1.2 1.9 2.1 2.5.9.6 2 .9 3.2.9z" fill="white"/>
<path d="M125.8 27.1V9.4h2.1v2.8c.6-1 1.4-1.8 2.4-2.3.9-.5 2-.8 3.1-.8 1.4 0 2.6.3 3.6 1 1 .7 1.8 1.6 2.3 2.8.5 1.2.8 2.6.8 4.2 0 1.6-.3 3-.8 4.2-.5 1.2-1.3 2.1-2.3 2.8-1 .7-2.2 1-3.6 1-1.1 0-2.1-.3-3.1-.8-1-.5-1.8-1.3-2.4-2.3v2.8h-2.1zm8.9-2.2c1.1 0 2.1-.3 2.9-.8.8-.5 1.4-1.3 1.9-2.3.4-1 .7-2.1.7-3.4 0-1.3-.2-2.4-.7-3.4-.4-1-1.1-1.8-1.9-2.3-.8-.5-1.8-.8-2.9-.8-1.1 0-2.1.3-2.9.8-.8.5-1.4 1.3-1.9 2.3-.4 1-.7 2.1-.7 3.4 0 1.3.2 2.4.7 3.4.4 1 1.1 1.8 1.9 2.3.8.5 1.8.8 2.9.8z" fill="white"/>
</svg>