<svg width="90" height="54" viewBox="0 0 90 54" fill="none" xmlns="http://www.w3.org/2000/svg">
<g id="AWS" clip-path="url(#clip0_2066_4070)">
<g id="Group">
<g id="Clip path group">
<mask id="mask0_2066_4070" style="mask-type:luminance" maskUnits="userSpaceOnUse" x="-12" y="0" width="114" height="54">
<g id="SVGID_00000080207480680820892950000007224207168542759309_">
<path id="Vector" d="M101.321 0H-11.3564V54H101.321V0Z" fill="white"/>
</g>
</mask>
<g mask="url(#mask0_2066_4070)">
<path id="Vector_2" d="M75.5981 28.2161C74.0462 28.2161 72.495 28.0379 71.0029 27.6822C69.5107 27.3265 68.3472 26.9404 67.5713 26.4956C67.094 26.2282 66.7654 25.9319 66.6459 25.6646C66.5264 25.3973 66.4667 25.101 66.4667 24.8337V23.3203C66.4667 22.6973 66.7057 22.4002 67.153 22.4002C67.3323 22.4002 67.5115 22.4299 67.69 22.4894C67.8692 22.5488 68.1373 22.6676 68.4361 22.7864C69.4502 23.2312 70.5548 23.5876 71.7183 23.8245C72.9117 24.0621 74.076 24.1802 75.2695 24.1802C77.1492 24.1802 78.6115 23.8534 79.6264 23.2007C80.6406 22.548 81.1783 21.5982 81.1783 20.3819C81.1783 19.551 80.9094 18.8685 80.3725 18.3049C79.8355 17.7413 78.8206 17.2371 77.3583 16.7619L73.0312 15.4267C70.8528 14.7443 69.2419 13.7359 68.2568 12.4C67.2718 11.0945 66.7647 9.64055 66.7647 8.09748C66.7647 6.85144 67.0335 5.75316 67.5705 4.80416C68.1074 3.8544 68.8236 3.02422 69.7191 2.3715C70.6145 1.68907 71.6287 1.18487 72.8221 0.828422C74.0155 0.472738 75.2687 0.324219 76.5816 0.324219C77.2381 0.324219 77.9244 0.353923 78.5808 0.443034C79.2672 0.532145 79.8937 0.650961 80.5203 0.769776C81.117 0.918295 81.6839 1.06681 82.2208 1.24428C82.7578 1.4225 83.176 1.59996 83.474 1.77818C83.8914 2.01581 84.1902 2.25268 84.3694 2.52002C84.5487 2.75765 84.6383 3.08363 84.6383 3.49948V4.89404C84.6383 5.51705 84.3993 5.8438 83.952 5.8438C83.713 5.8438 83.3254 5.72498 82.8183 5.48811C81.1178 4.71657 79.2074 4.33119 77.0887 4.33119C75.3882 4.33119 74.0454 4.59852 73.1201 5.16213C72.1948 5.72574 71.7176 6.58639 71.7176 7.80272C71.7176 8.63367 72.0163 9.3458 72.613 9.90941C73.2097 10.473 74.3135 11.0366 75.8953 11.5416L80.1327 12.8767C82.2813 13.5592 83.8332 14.5089 84.7578 15.7253C85.6831 16.9416 86.1304 18.3362 86.1304 19.8792C86.1304 21.155 85.8616 22.3119 85.3545 23.3211C84.8175 24.3302 84.1013 25.2198 83.176 25.9319C82.2507 26.6738 81.1469 27.2077 79.8639 27.5938C78.5226 28.0089 77.1201 28.2161 75.5981 28.2161ZM37.2541 27.4149C36.7172 27.4149 36.3587 27.3257 36.1205 27.1178C35.8815 26.9396 35.6731 26.5245 35.4939 25.9609L28.4805 3.0265C28.3012 2.43319 28.2116 2.04704 28.2116 1.83987C28.2116 1.36538 28.4506 1.09804 28.9278 1.09804H31.8524C32.4192 1.09804 32.8076 1.18715 33.0159 1.39508C33.2549 1.5733 33.4334 1.98839 33.6126 2.552L38.626 22.1938L43.2817 2.55124C43.4311 1.95793 43.6103 1.57178 43.8485 1.39432C44.0875 1.21609 44.505 1.09728 45.042 1.09728H47.4288C47.9956 1.09728 48.384 1.18639 48.6222 1.39432C48.8612 1.57254 49.0695 1.98763 49.189 2.55124L53.9037 22.4307L59.0665 2.55124C59.2457 1.95793 59.4541 1.57178 59.6632 1.39432C59.9022 1.21609 60.2898 1.09728 60.8267 1.09728H63.6019C64.0791 1.09728 64.348 1.33491 64.348 1.83911C64.348 1.98763 64.3181 2.13615 64.2882 2.31361C64.2584 2.49184 64.1986 2.7287 64.0791 3.05545L56.888 25.9906C56.7087 26.5839 56.5004 26.9701 56.2614 27.1475C56.0224 27.3257 55.6348 27.4446 55.1277 27.4446H52.5617C51.9948 27.4446 51.6065 27.3554 51.3683 27.1475C51.1293 26.9396 50.9209 26.5542 50.8014 25.9609L46.1756 6.82402L41.5804 25.9319C41.4311 26.5253 41.2518 26.9114 41.0136 27.1186C40.7746 27.3265 40.3572 27.4156 39.8202 27.4156H37.2541V27.4149ZM13.2924 24.2107C14.2775 24.2107 15.2917 24.0324 16.3656 23.6767C17.4395 23.3211 18.3947 22.6683 19.2005 21.778C19.6777 21.2144 20.0362 20.5914 20.2154 19.8792C20.3947 19.1671 20.5142 18.3064 20.5142 17.298V16.052C19.6486 15.8441 18.7241 15.6666 17.7689 15.5478C16.8137 15.429 15.8891 15.3696 14.9638 15.3696C12.9646 15.3696 11.5023 15.755 10.518 16.5562C9.53372 17.3575 9.05574 18.4847 9.05574 19.9683C9.05574 21.3629 9.41346 22.401 10.1595 23.1131C10.875 23.855 11.9198 24.2107 13.2924 24.2107ZM25.4073 19.701C25.4073 20.7985 25.5268 21.6889 25.7359 22.3416C25.9749 22.9943 26.2729 23.7064 26.6911 24.478C26.8405 24.7156 26.9002 24.9525 26.9002 25.1604C26.9002 25.4574 26.721 25.7537 26.3334 26.0508L24.4537 27.2968C24.1848 27.475 23.9167 27.5641 23.6777 27.5641C23.379 27.5641 23.081 27.4156 22.7823 27.149C22.3648 26.7042 22.0063 26.229 21.7084 25.7545C21.4096 25.2503 21.1117 24.6867 20.783 24.0042C18.4552 26.734 15.5314 28.0988 12.0102 28.0988C9.50384 28.0988 7.50461 27.3867 6.04233 25.9624C4.58006 24.5382 3.83398 22.6394 3.83398 20.2654C3.83398 17.7436 4.72943 15.6963 6.54942 14.1532C8.36941 12.6102 10.7869 11.8386 13.86 11.8386C14.8742 11.8386 15.919 11.9277 17.0228 12.0763C18.1266 12.2248 19.261 12.4617 20.4544 12.729V10.5629C20.4544 8.30769 19.9772 6.73567 19.0519 5.81562C18.0967 4.89556 16.4858 4.45076 14.1879 4.45076C13.1438 4.45076 12.0691 4.56958 10.9654 4.83615C9.86156 5.10349 8.78688 5.42947 7.74283 5.84456C7.26562 6.05248 6.90714 6.1713 6.69879 6.22995C6.48967 6.28935 6.34107 6.31906 6.22158 6.31906C5.80411 6.31906 5.595 6.02202 5.595 5.399V3.9458C5.595 3.4713 5.65474 3.11485 5.80411 2.90769C5.95348 2.69976 6.22158 2.4926 6.63981 2.28467C7.68385 1.75076 8.93778 1.30521 10.3993 0.949522C11.8616 0.564134 13.4135 0.385911 15.0542 0.385911C18.6053 0.385911 21.2013 1.18715 22.8719 2.78887C24.5134 4.39136 25.3484 6.82402 25.3484 10.0876V19.701H25.4073Z" fill="#252F3E"/>
</g>
</g>
<g id="Clip path group_2">
<mask id="mask1_2066_4070" style="mask-type:luminance" maskUnits="userSpaceOnUse" x="-12" y="0" width="114" height="54">
<g id="SVGID_00000080207480680820892950000007224207168542759309__2">
<path id="Vector_3" d="M101.321 0H-11.3564V54H101.321V0Z" fill="white"/>
</g>
</mask>
<g mask="url(#mask1_2066_4070)">
<path id="Vector_4" fill-rule="evenodd" clip-rule="evenodd" d="M81.2381 42.6364C71.4212 49.846 57.1569 53.674 44.8934 53.674C27.7054 53.674 12.2186 47.354 0.52114 36.851C-0.404176 36.02 0.431519 34.8928 1.53608 35.5455C14.1879 42.8443 29.7942 47.2656 45.9382 47.2656C56.8298 47.2656 68.7954 45.0104 79.8065 40.3819C81.4465 39.6393 82.849 41.4497 81.2381 42.6364Z" fill="#FF9900"/>
</g>
</g>
<g id="Clip path group_3">
<mask id="mask2_2066_4070" style="mask-type:luminance" maskUnits="userSpaceOnUse" x="-12" y="0" width="114" height="54">
<g id="SVGID_00000080207480680820892950000007224207168542759309__3">
<path id="Vector_5" d="M101.321 0H-11.3564V54H101.321V0Z" fill="white"/>
</g>
</mask>
<g mask="url(#mask2_2066_4070)">
<path id="Vector_6" fill-rule="evenodd" clip-rule="evenodd" d="M85.3259 38.0078C84.0727 36.4053 77.0302 37.2363 73.8375 37.6224C72.8823 37.7412 72.7337 36.9103 73.5985 36.2873C79.2087 32.3709 88.4289 33.4982 89.5036 34.8036C90.5775 36.1387 89.2048 45.3066 83.9532 49.6982C83.1474 50.3806 82.3714 50.0249 82.7299 49.1345C83.9233 46.1969 86.579 39.5798 85.3259 38.0078Z" fill="#FF9900"/>
</g>
</g>
</g>
</g>
<defs>
<clipPath id="clip0_2066_4070">
<rect width="90" height="54" fill="white"/>
</clipPath>
</defs>
</svg>
