<svg width="58" height="54" viewBox="0 0 58 54" fill="none" xmlns="http://www.w3.org/2000/svg">
<g id="Azure-logo" clip-path="url(#clip0_2066_4064)">
<g id="Group">
<path id="Vector" d="M19.0884 0H36.1674L18.586 52.2419C18.3349 53.2465 17.0791 54 16.0744 54H2.76279C1.25581 54 0 52.7442 0 51.2372C0 50.986 0 50.7349 0.251163 50.4837L16.5767 1.75814C16.8279 0.753488 17.8326 0 19.0884 0Z" fill="url(#paint0_linear_2066_4064)"/>
<path id="Vector_2" d="M43.7025 34.9116H16.8281C16.0746 34.9116 15.5723 35.4139 15.5723 36.1674C15.5723 36.4186 15.8234 36.9209 16.0746 37.1721L33.4048 53.2465C33.9072 53.7488 34.6606 54 35.163 54H50.4839L43.7025 34.9116Z" fill="#2E76BB"/>
<path id="Vector_3" d="M19.0883 0C17.8325 0 16.8278 0.753488 16.5767 1.75814L0.251094 50.4837C-0.251232 51.9907 0.502257 53.4977 1.75807 54C2.00923 54 2.2604 54.2512 2.76272 54.2512H16.3255C17.3302 54 18.0837 53.2465 18.586 52.2419L21.8511 42.6977L33.4046 53.4977C33.9069 54 34.4092 54.2512 35.1627 54.2512H50.2325L43.4511 35.1628H24.1116L36.1674 0H19.0883Z" fill="url(#paint1_linear_2066_4064)"/>
<path id="Vector_4" d="M40.6882 1.75814C40.437 0.753488 39.1812 0 38.1766 0H19.3394C20.5952 0 21.5998 0.753488 21.851 1.75814L38.1766 50.4837C38.6789 51.9907 37.9254 53.4977 36.4184 54C36.1673 54 35.9161 54.2512 35.6649 54.2512H54.5021C56.0091 54.2512 57.2649 52.9953 57.2649 51.4884C57.2649 51.2372 57.2649 50.986 57.0138 50.7349L40.6882 1.75814Z" fill="url(#paint2_linear_2066_4064)"/>
</g>
</g>
<defs>
<linearGradient id="paint0_linear_2066_4064" x1="25.2949" y1="4.00365" x2="7.67703" y2="56.0512" gradientUnits="userSpaceOnUse">
<stop stop-color="#124B89"/>
<stop offset="1" stop-color="#1A6AB3"/>
</linearGradient>
<linearGradient id="paint1_linear_2066_4064" x1="30.7981" y1="28.2585" x2="26.7226" y2="29.6364" gradientUnits="userSpaceOnUse">
<stop stop-opacity="0.3"/>
<stop offset="0.071" stop-opacity="0.2"/>
<stop offset="0.321" stop-opacity="0.1"/>
<stop offset="0.623" stop-opacity="0.05"/>
<stop offset="1" stop-opacity="0"/>
</linearGradient>
<linearGradient id="paint2_linear_2066_4064" x1="28.6835" y1="2.43819" x2="48.023" y2="53.9611" gradientUnits="userSpaceOnUse">
<stop stop-color="#47C6EF"/>
<stop offset="1" stop-color="#3A8FCD"/>
</linearGradient>
<clipPath id="clip0_2066_4064">
<rect width="57.2651" height="54" fill="white"/>
</clipPath>
</defs>
</svg>
