<svg width="141" height="33" viewBox="0 0 141 33" fill="none" xmlns="http://www.w3.org/2000/svg">
<path d="M18.6 2.1L8.4 25.8h6.2l2.1-5.8h11.2l2.1 5.8h6.2L26 2.1h-7.4zm-1.3 14.2l3.7-10.2 3.7 10.2h-7.4z" fill="#0078D4"/>
<path d="M41.2 26.1c-1.8 0-3.4-.3-4.8-.9l1.2-4.2c1.2.5 2.6.8 4.2.8 1.8 0 2.7-.6 2.7-1.8 0-.5-.2-.9-.6-1.2-.4-.3-1.1-.6-2.1-.9-2.1-.6-3.6-1.3-4.5-2.1-.9-.8-1.4-1.9-1.4-3.3 0-1.5.6-2.7 1.8-3.6 1.2-.9 2.8-1.4 4.8-1.4 1.6 0 3 .2 4.2.7l-1.1 4.1c-1.1-.4-2.2-.6-3.3-.6-1.6 0-2.4.5-2.4 1.6 0 .4.2.8.5 1 .3.3.9.5 1.8.8 2.2.6 3.8 1.3 4.7 2.1.9.8 1.4 1.9 1.4 3.4 0 1.5-.6 2.7-1.9 3.6-1.3.9-3 1.4-5.1 1.4z" fill="white"/>
<path d="M62.8 26.1c-2.4 0-4.3-.7-5.7-2.1-1.4-1.4-2.1-3.3-2.1-5.7V7.8h5.4v10.2c0 1.2.3 2.1.8 2.7.5.6 1.3.9 2.3.9 1 0 1.8-.3 2.3-.9.5-.6.8-1.5.8-2.7V7.8h5.4v10.5c0 2.4-.7 4.3-2.1 5.7-1.4 1.4-3.3 2.1-5.7 2.1z" fill="white"/>
<path d="M78.2 25.8V7.8h5.4v3.2c.7-1.2 1.6-2.1 2.7-2.7 1.1-.6 2.4-.9 3.8-.9v5.2h-1.4c-1.6 0-2.8.4-3.6 1.1-.8.7-1.2 1.9-1.2 3.5v7.6h-5.4z" fill="white"/>
<path d="M105.8 20.4h-11.6c.2 1 .7 1.8 1.5 2.3.8.5 1.8.8 3 .8 1.6 0 3-.4 4.2-1.2l2.1 3.6c-.7.5-1.6.9-2.7 1.2-1.1.3-2.3.5-3.6.5-2.1 0-3.9-.4-5.4-1.3-1.5-.9-2.7-2.1-3.5-3.6-.8-1.5-1.2-3.2-1.2-5.1 0-1.9.4-3.6 1.2-5.1.8-1.5 1.9-2.7 3.3-3.5 1.4-.8 3-.1 4.7-1.2 1.7 0 3.2.4 4.5 1.2 1.3.8 2.3 1.9 3 3.4.7 1.5 1.1 3.2 1.1 5.1v.7zm-5.1-3.2c0-.9-.3-1.6-.8-2.1-.5-.5-1.2-.8-2.1-.8-.9 0-1.6.3-2.2.8-.6.5-1 1.2-1.2 2.1h6.3z" fill="white"/>
</svg>