<svg width="166" height="46" viewBox="0 0 166 46" fill="none" xmlns="http://www.w3.org/2000/svg">
<g clip-path="url(#clip0_1130_2635)">
<path d="M76.743 13.6905C75.8725 13.6631 75.1652 14.3476 75.138 15.1964V23.0822C71.411 20.0703 65.943 20.6726 62.9505 24.4238C61.7263 25.9845 61.0462 27.9012 61.0462 29.9C60.9646 34.7191 64.7732 38.6893 69.5611 38.7714C74.3491 38.8536 78.2937 35.0203 78.3753 30.2012V15.306C78.3753 14.8679 78.2121 14.4572 77.9128 14.156C77.5864 13.8548 77.1783 13.6905 76.743 13.6905ZM74.7027 32.0083C74.1586 33.3226 73.1249 34.3631 71.8191 34.9381C70.4589 35.5131 68.9354 35.5131 67.5752 34.9381C66.2694 34.3905 65.2629 33.3226 64.7188 32.0357C64.1475 30.6941 64.1475 29.1607 64.7188 27.7917C65.2629 26.4774 66.2966 25.4369 67.5752 24.8893C68.9354 24.3143 70.4589 24.3143 71.8191 24.8893C73.1249 25.4643 74.1586 26.5048 74.7027 27.8191C75.274 29.1333 75.274 30.6667 74.7027 32.0083Z" fill="#0091E2"/>
<path d="M94.8338 23.7393C91.4605 20.3441 85.9652 20.3441 82.5919 23.7393C79.2186 27.1345 80.0619 27.6 80.0619 29.9C79.9803 34.7191 83.7889 38.6893 88.5769 38.7714C93.3648 38.8536 97.3094 35.0203 97.391 30.2012V29.9C97.391 28.75 97.1734 27.6274 96.7381 26.5595C96.3028 25.4917 95.6499 24.5333 94.8338 23.7393ZM93.7184 31.981C93.4464 32.6381 93.0383 33.2131 92.5487 33.706C92.059 34.1988 91.4605 34.6095 90.8348 34.8833C89.4746 35.4583 87.9511 35.4583 86.5909 34.8833C85.2851 34.3357 84.2514 33.2679 83.7073 31.981C83.136 30.6393 83.136 29.106 83.7073 27.7369C84.2514 26.4226 85.2851 25.4095 86.5909 24.8345C87.9511 24.2595 89.4746 24.2595 90.8348 24.8345C91.4877 25.1083 92.059 25.5191 92.5487 26.0119C93.0383 26.5048 93.4464 27.1072 93.7184 27.7369C94.2897 29.1333 94.2897 30.6667 93.7184 31.981Z" fill="#0091E2"/>
<path d="M130.662 22.7809C130.662 22.5619 130.607 22.3428 130.526 22.1511C130.444 21.9595 130.308 21.7952 130.172 21.6309C130.036 21.494 129.846 21.3571 129.655 21.275C129.465 21.1928 129.247 21.138 129.029 21.138C128.812 21.138 128.431 21.2202 128.159 21.3845L118.91 27.4357V15.3333C118.91 14.8952 118.746 14.4845 118.447 14.1833C118.148 13.8821 117.74 13.6904 117.304 13.6904C116.407 13.6904 115.699 14.4023 115.672 15.3059V36.9642C115.672 37.4023 115.835 37.813 116.135 38.1142C116.434 38.4428 116.842 38.6071 117.277 38.6071C117.713 38.6071 118.121 38.4428 118.42 38.1142C118.719 37.813 118.91 37.4023 118.882 36.9642V31.3511L120.759 30.119L127.914 38.1964C128.213 38.4702 128.594 38.6345 129.002 38.6071C129.22 38.6071 129.438 38.5797 129.628 38.4702C129.818 38.388 129.982 38.2785 130.145 38.1142C130.281 37.95 130.417 37.7857 130.499 37.594C130.58 37.4023 130.635 37.1833 130.635 36.9642C130.635 36.5535 130.471 36.1428 130.199 35.8416L123.561 28.3119L130.036 24.0678C130.471 23.794 130.689 23.3011 130.662 22.7809Z" fill="#0091E2"/>
<path d="M103.811 26.0118C104.301 25.519 104.899 25.1083 105.552 24.8345C106.232 24.5607 106.94 24.3964 107.674 24.3964C108.409 24.3964 108.953 24.5059 109.551 24.7249C110.15 24.9714 110.721 25.2999 111.211 25.738C111.51 25.9845 111.891 26.094 112.272 26.094C112.707 26.1214 113.142 25.9571 113.441 25.6285C113.741 25.3273 113.904 24.8892 113.904 24.4511C113.904 24.013 113.714 23.5202 113.333 23.219C111.782 21.8226 109.769 21.0559 107.674 21.1107C102.886 21.1107 98.9961 25.0261 98.9961 29.8452C98.9961 34.6642 102.859 38.5523 107.62 38.5797C109.715 38.5797 111.728 37.8404 113.305 36.4714C113.632 36.1702 113.822 35.7321 113.822 35.2666C113.85 34.3904 113.169 33.6785 112.326 33.6511H112.217C111.836 33.6511 111.483 33.7607 111.184 33.9797C110.694 34.4178 110.15 34.7464 109.551 34.9928C108.953 35.2118 108.3 35.3214 107.674 35.3214C107.049 35.3214 106.232 35.1845 105.552 34.8833C104.899 34.6095 104.328 34.1988 103.811 33.7059C101.689 31.5702 101.689 28.1202 103.784 25.9845C103.784 26.021 103.784 26.021 103.784 25.9845" fill="#0091E2"/>
<path d="M162.79 22.2607C162.463 21.9595 162.11 21.7405 161.702 21.6036C161.239 21.4393 160.75 21.3298 160.26 21.275C159.77 21.2203 159.281 21.1929 158.791 21.1929C157.812 21.1929 156.805 21.3572 155.88 21.7131C154.955 22.0417 154.112 22.5345 153.35 23.1369V22.8083C153.35 21.9048 152.561 21.2203 151.663 21.2476C150.82 21.275 150.14 21.9595 150.113 22.8083V37.0191C150.113 37.9226 150.902 38.6072 151.799 38.5798C152.643 38.5524 153.323 37.8679 153.35 37.0191V29.9274C153.35 29.1881 153.486 28.4762 153.785 27.7917C154.057 27.1345 154.438 26.5595 154.955 26.0667C155.445 25.5738 156.043 25.1631 156.669 24.8893C157.349 24.6155 158.056 24.4512 158.791 24.4512C159.525 24.4512 160.233 24.5881 160.913 24.8345C161.13 24.9441 161.348 24.9988 161.593 24.9988C161.838 24.9988 162.028 24.9714 162.219 24.8619C162.409 24.7798 162.572 24.6703 162.735 24.506C162.872 24.3691 163.008 24.1774 163.089 23.9857C163.171 23.7941 163.225 23.575 163.225 23.356C163.252 22.9453 163.089 22.5619 162.79 22.2607Z" fill="#0091E2"/>
<path d="M147.773 26.5595C146.386 23.3286 143.23 21.2203 139.748 21.1929C134.96 21.1929 131.097 25.081 131.07 29.9C131.07 34.7191 134.96 38.6345 139.748 38.6345C144.536 38.6345 143.829 37.8952 145.406 36.5262C145.406 36.4988 145.461 36.4714 145.461 36.4714C145.597 36.3619 145.733 36.225 145.814 36.0607C146.331 35.2941 146.141 34.281 145.406 33.7607C144.781 33.35 143.965 33.4322 143.421 33.9524C143.366 34.0072 143.203 34.1441 143.203 34.1714C142.74 34.5822 142.224 34.9107 141.652 35.1024C141.054 35.3214 140.428 35.431 139.775 35.4036C139.177 35.4036 138.605 35.3214 138.034 35.1298C137.49 34.9381 136.973 34.6917 136.511 34.3357C136.048 34.0072 135.64 33.5964 135.314 33.131C134.96 32.6655 134.715 32.1179 134.552 31.5703H146.794C147.229 31.5703 147.637 31.406 147.936 31.1048C148.263 30.8036 148.426 30.3929 148.399 29.9548C148.426 28.7774 148.208 27.6274 147.8 26.5595M134.525 28.3119C134.688 27.7369 134.933 27.2167 135.286 26.7512C135.613 26.2857 136.021 25.875 136.483 25.5464C136.946 25.2179 137.463 24.9441 138.007 24.7524C138.551 24.5607 139.149 24.4786 139.721 24.4786C140.292 24.4786 140.891 24.5607 141.435 24.7524C142.523 25.1083 143.475 25.8203 144.155 26.7512C144.509 27.2167 144.754 27.7643 144.944 28.3119H134.525Z" fill="#0091E2"/>
<path d="M157.267 36.2524C156.642 36.2524 156.152 36.7727 156.152 37.4024C156.152 38.0322 156.669 38.5251 157.295 38.5251C157.92 38.5251 158.41 38.0048 158.41 37.4024C158.41 36.8001 157.893 36.2524 157.267 36.2524ZM157.267 38.2786C156.778 38.306 156.37 37.9227 156.343 37.4298C156.343 36.937 156.696 36.5263 157.186 36.4989C157.676 36.4715 158.084 36.8548 158.111 37.3477V37.4024C158.111 37.8679 157.757 38.2786 157.295 38.2786" fill="#0091E2"/>
<path d="M157.539 37.4024C157.675 37.3751 157.757 37.2655 157.757 37.1286C157.757 36.9917 157.757 36.937 157.648 36.8822C157.539 36.8274 157.403 36.8 157.267 36.8C157.131 36.8 156.968 36.8001 156.832 36.8274V37.9501H157.077V37.512H157.186C157.322 37.512 157.403 37.5667 157.431 37.6762C157.431 37.7584 157.485 37.8679 157.512 37.9501H157.784C157.73 37.8679 157.703 37.7584 157.703 37.6762C157.703 37.5667 157.648 37.4572 157.539 37.4024ZM157.213 37.3203H157.077V36.9917H157.213C157.376 36.9917 157.458 37.0739 157.458 37.156C157.458 37.2655 157.349 37.3477 157.213 37.3203Z" fill="#0091E2"/>
<path d="M58.081 17.3596C57.9177 17.2226 56.4487 16.1 53.293 16.1C50.1373 16.1 51.6336 16.1822 50.8174 16.3191C50.2189 12.1298 46.764 10.1036 46.628 9.99408L45.7847 9.50122L45.2406 10.2953C44.5605 11.3631 44.0436 12.5679 43.7444 13.8C43.1731 16.1822 43.5267 18.4274 44.7237 20.3441C43.2819 21.1655 40.9423 21.3572 40.4526 21.3846H1.82269C0.816136 21.3846 1.05735e-05 22.206 1.05735e-05 23.2191C-0.0543978 26.6143 0.51689 30.0096 1.68667 33.2131C3.01968 36.7179 5.00558 39.3191 7.56278 40.9072C10.4464 42.6869 15.1527 43.7 20.4576 43.7C25.7624 43.7 25.2455 43.481 27.6123 43.0429C30.904 42.4405 34.0597 41.2905 36.9705 39.6203C39.3645 38.2238 41.5136 36.4441 43.3363 34.3631C46.4104 30.8857 48.233 26.9976 49.566 23.5476H50.1101C53.4562 23.5476 55.5238 22.206 56.6663 21.056C57.4281 20.3441 57.9993 19.4679 58.4074 18.4822L58.6522 17.7703L58.081 17.3596Z" fill="#0091E2"/>
<path d="M5.41364 20.2619H10.5824C10.8273 20.2619 11.0449 20.0702 11.0449 19.7964V15.1416C11.0449 14.8952 10.8545 14.6761 10.5824 14.6761H5.41364C5.16881 14.6761 4.95117 14.8678 4.95117 15.1416V19.7964C4.97838 20.0702 5.16881 20.2619 5.41364 20.2619Z" fill="#0091E2"/>
<path d="M12.5411 20.2619H17.7099C17.9548 20.2619 18.1724 20.0702 18.1724 19.7964V15.1416C18.1724 14.8952 17.982 14.6761 17.7099 14.6761H12.5411C12.2963 14.6761 12.0787 14.8678 12.0787 15.1416V19.7964C12.0787 20.0702 12.2963 20.2619 12.5411 20.2619Z" fill="#0091E2"/>
<path d="M19.8047 20.2619H24.9735C25.2183 20.2619 25.4359 20.0702 25.4359 19.7964V15.1416C25.4359 14.8952 25.2455 14.6761 24.9735 14.6761H19.8047C19.5598 14.6761 19.3422 14.8678 19.3422 15.1416V19.7964C19.3422 20.0702 19.5326 20.2619 19.8047 20.2619Z" fill="#0091E2"/>
<path d="M26.9594 20.2619H32.1282C32.373 20.2619 32.5906 20.0702 32.5906 19.7964V15.1416C32.5906 14.8952 32.4002 14.6761 32.1282 14.6761H26.9594C26.7145 14.6761 26.4969 14.8678 26.4969 15.1416V19.7964C26.4969 20.0702 26.7145 20.2619 26.9594 20.2619Z" fill="#0091E2"/>
<path d="M12.5411 13.6083H17.7099C17.9548 13.6083 18.1724 13.3892 18.1724 13.1428V8.48806C18.1724 8.24163 17.982 8.02258 17.7099 8.02258H12.5411C12.2963 8.02258 12.0787 8.21425 12.0787 8.48806V13.1428C12.0787 13.3892 12.2963 13.6083 12.5411 13.6083Z" fill="#0091E2"/>
<path d="M19.8047 13.6083H24.9735C25.2183 13.6083 25.4359 13.3892 25.4359 13.1428V8.48806C25.4359 8.24163 25.2455 8.02258 24.9735 8.02258H19.8047C19.5598 8.02258 19.3422 8.21425 19.3422 8.48806V13.1428C19.3422 13.3892 19.5326 13.6083 19.8047 13.6083Z" fill="#0091E2"/>
<path d="M26.9594 13.6083H32.1282C32.373 13.6083 32.5906 13.3892 32.5906 13.1428V8.48806C32.5906 8.24163 32.373 8.02258 32.1282 8.02258H26.9594C26.7145 8.02258 26.4969 8.21425 26.4969 8.48806V13.1428C26.4969 13.3892 26.7145 13.6083 26.9594 13.6083Z" fill="#0091E2"/>
<path d="M26.9594 6.92739H32.1282C32.373 6.92739 32.5906 6.73572 32.5906 6.46191V1.80715C32.5906 1.56072 32.373 1.34167 32.1282 1.34167H26.9594C26.7145 1.34167 26.4969 1.53334 26.4969 1.80715V6.46191C26.4969 6.70834 26.7145 6.92739 26.9594 6.92739Z" fill="#0091E2"/>
<path d="M34.1685 20.2619H39.3373C39.5821 20.2619 39.7997 20.0702 39.7997 19.7964V15.1416C39.7997 14.8952 39.6093 14.6761 39.3373 14.6761H34.1685C33.9236 14.6761 33.706 14.8678 33.706 15.1416V19.7964C33.706 20.0702 33.9236 20.2619 34.1685 20.2619Z" fill="#0091E2"/>
</g>
<defs>
<clipPath id="clip0_1130_2635">
<rect width="166" height="46" fill="white"/>
</clipPath>
</defs>
</svg>
