<svg width="141" height="33" viewBox="0 0 141 33" fill="none" xmlns="http://www.w3.org/2000/svg">
<path d="M16.5 8.2c2.1 0 4 .8 5.5 2.2l3.9-3.9C23.2 4.2 20 2.8 16.5 2.8c-5.4 0-10.1 3.1-12.4 7.6l4.5 3.5c1.1-3.2 4-5.7 7.9-5.7z" fill="#EA4335"/>
<path d="M26 14.5c0-.9-.1-1.8-.2-2.6H16.5v4.9h5.4c-.2 1.3-.9 2.4-1.9 3.1l3.1 2.4c1.8-1.7 2.9-4.2 2.9-7.8z" fill="#4285F4"/>
<path d="M8.6 19.7c-.6-1.8-.6-3.7 0-5.5L4.1 10.7C2.1 14.6 2.1 19.4 4.1 23.3l4.5-3.6z" fill="#FBBC04"/>
<path d="M16.5 26.2c3.4 0 6.3-1.1 8.4-3l-3.1-2.4c-1 .7-2.3 1.1-3.8 1.1-2.9 0-5.4-2-6.3-4.7l-4.5 3.5c2.3 4.6 7 7.5 12.3 7.5z" fill="#34A853"/>
<path d="M45.2 8.5h2.4v17.3h-2.4V23c-.8 1.1-2.1 1.8-3.7 1.8-3.1 0-5.6-2.5-5.6-5.6s2.5-5.6 5.6-5.6c1.6 0 2.9.7 3.7 1.8V8.5zm-3.5 14.7c2 0 3.6-1.6 3.6-3.6s-1.6-3.6-3.6-3.6-3.6 1.6-3.6 3.6 1.6 3.6 3.6 3.6z" fill="white"/>
<path d="M54.8 13.6c3.1 0 5.6 2.5 5.6 5.6s-2.5 5.6-5.6 5.6-5.6-2.5-5.6-5.6 2.5-5.6 5.6-5.6zm0 8.8c2 0 3.6-1.6 3.6-3.6s-1.6-3.6-3.6-3.6-3.6 1.6-3.6 3.6 1.6 3.6 3.6 3.6z" fill="white"/>
<path d="M68.4 13.6c3.1 0 5.6 2.5 5.6 5.6s-2.5 5.6-5.6 5.6-5.6-2.5-5.6-5.6 2.5-5.6 5.6-5.6zm0 8.8c2 0 3.6-1.6 3.6-3.6s-1.6-3.6-3.6-3.6-3.6 1.6-3.6 3.6 1.6 3.6 3.6 3.6z" fill="white"/>
<path d="M82.8 13.6c1.6 0 2.9.7 3.7 1.8v-1.6h2.4v11.4c0 4.7-2.8 6.6-6.1 6.6-3.1 0-5-2.1-5.7-3.8l2.1-.9c.4 1 1.6 2.2 3.6 2.2 2.4 0 3.8-1.5 3.8-4.2v-.9c-.8 1.1-2.1 1.8-3.7 1.8-3.1 0-5.6-2.5-5.6-5.6s2.5-5.6 5.6-5.6zm.2 8.8c2 0 3.6-1.6 3.6-3.6s-1.6-3.6-3.6-3.6-3.6 1.6-3.6 3.6 1.6 3.6 3.6 3.6z" fill="white"/>
<path d="M95.2 8.5v17.3h-2.4V8.5h2.4z" fill="white"/>
<path d="M107.8 20.4h-8.4c.3 1.9 1.8 2.9 3.8 2.9 1.8 0 2.9-.9 3.4-2.1l2 .8c-.8 1.9-2.8 3.2-5.4 3.2-3.3 0-6-2.7-6-5.6 0-3.3 2.6-5.6 5.7-5.6 3.2 0 5.7 2.5 5.7 5.6.1.3 0 .5-.1.8zm-8.4-1.8h6.1c-.2-1.7-1.4-2.7-3-2.7s-2.9 1-3.1 2.7z" fill="white"/>
<path d="M125.8 8.5c4.2 0 7.2 2.9 7.2 7.1 0 4.2-3 7.1-7.2 7.1-2.4 0-4.4-1.1-5.5-2.8v2.5h-2.4V8.5h2.4v7.8c1.1-1.7 3.1-2.8 5.5-2.8zm-.2 11.9c2.8 0 4.8-2.2 4.8-4.8s-2-4.8-4.8-4.8-4.8 2.2-4.8 4.8 2 4.8 4.8 4.8z" fill="white"/>
</svg>