<svg width="141" height="33" viewBox="0 0 141 33" fill="none" xmlns="http://www.w3.org/2000/svg">
<rect x="2" y="2" width="13" height="13" fill="#F25022"/>
<rect x="17" y="2" width="13" height="13" fill="#7FBA00"/>
<rect x="2" y="17" width="13" height="13" fill="#00A4EF"/>
<rect x="17" y="17" width="13" height="13" fill="#FFB900"/>
<path d="M44.8 25.8V7.2h3.8l4.5 11.8L57.6 7.2h3.8v18.6h-2.7V10.9l-4.2 10.8h-2.8L47.5 10.9v14.9h-2.7z" fill="white"/>
<path d="M66.2 7.2v2.4h-2.4V7.2h2.4zm-2.4 4.2h2.4v14.4h-2.4V11.4z" fill="white"/>
<path d="M78.4 24.2c-.9.9-2.1 1.4-3.6 1.4-1.5 0-2.7-.5-3.6-1.4-.9-.9-1.4-2.1-1.4-3.6 0-1.5.5-2.7 1.4-3.6.9-.9 2.1-1.4 3.6-1.4 1.5 0 2.7.5 3.6 1.4.9.9 1.4 2.1 1.4 3.6 0 1.5-.5 2.7-1.4 3.6zm-5.8-1.8c.5.5 1.2.8 2.2.8s1.7-.3 2.2-.8c.5-.5.8-1.2.8-2.2s-.3-1.7-.8-2.2c-.5-.5-1.2-.8-2.2-.8s-1.7.3-2.2.8c-.5.5-.8 1.2-.8 2.2s.3 1.7.8 2.2z" fill="white"/>
<path d="M90.4 15.4c1.1 0 2 .4 2.7 1.1.7.7 1.1 1.6 1.1 2.7v6.6h-2.4v-6.2c0-.6-.2-1.1-.6-1.5-.4-.4-.9-.6-1.5-.6s-1.1.2-1.5.6c-.4.4-.6.9-.6 1.5v6.2h-2.4V11.4h2.4v5.1c.6-.7 1.4-1.1 2.8-1.1z" fill="white"/>
<path d="M105.8 15.4c1.1 0 2 .4 2.7 1.1.7.7 1.1 1.6 1.1 2.7v6.6h-2.4v-6.2c0-.6-.2-1.1-.6-1.5-.4-.4-.9-.6-1.5-.6s-1.1.2-1.5.6c-.4.4-.6.9-.6 1.5v6.2h-2.4V15.6h2.4v1.1c.6-.7 1.4-1.3 2.8-1.3z" fill="white"/>
<path d="M119.8 24.2c-.9.9-2.1 1.4-3.6 1.4-1.5 0-2.7-.5-3.6-1.4-.9-.9-1.4-2.1-1.4-3.6 0-1.5.5-2.7 1.4-3.6.9-.9 2.1-1.4 3.6-1.4 1.5 0 2.7.5 3.6 1.4.9.9 1.4 2.1 1.4 3.6 0 1.5-.5 2.7-1.4 3.6zm-5.8-1.8c.5.5 1.2.8 2.2.8s1.7-.3 2.2-.8c.5-.5.8-1.2.8-2.2s-.3-1.7-.8-2.2c-.5-.5-1.2-.8-2.2-.8s-1.7.3-2.2.8c-.5.5-.8 1.2-.8 2.2s.3 1.7.8 2.2z" fill="white"/>
<path d="M131.4 15.4c.8 0 1.5.2 2.1.6.6.4 1 .9 1.3 1.6v-2h2.4v10.2h-2.4v-2c-.3.7-.7 1.2-1.3 1.6-.6.4-1.3.6-2.1.6-1.2 0-2.2-.5-3-1.4-.8-.9-1.2-2.1-1.2-3.6s.4-2.7 1.2-3.6c.8-.9 1.8-1.4 3-1.4zm.6 8.8c.7 0 1.3-.3 1.8-.8.5-.5.7-1.2.7-2.2s-.2-1.7-.7-2.2c-.5-.5-1.1-.8-1.8-.8-.7 0-1.3.3-1.8.8-.5.5-.7 1.2-.7 2.2s.2 1.7.7 2.2c.5.5 1.1.8 1.8.8z" fill="white"/>
</svg>